<svg width="57" height="59" viewBox="0 0 57 59" fill="none" xmlns="http://www.w3.org/2000/svg">
<ellipse cx="22.8254" cy="23.778" rx="22.8254" ry="22.822" fill="url(#paint0_radial_2507_36)"/>
<path fill-rule="evenodd" clip-rule="evenodd" d="M31.1634 14.6959C30.7532 13.3403 30.2444 12.0427 29.661 10.8092C29.3056 10.842 28.9415 10.855 28.5713 10.8506C24.9013 10.8063 20.4319 9.04579 17.1444 7.48857C13.9625 5.98132 11.0559 5.60351 8.93422 5.66272C3.50176 9.83518 0 16.3966 0 23.7759C0 24.1977 0.011441 24.6168 0.0340297 25.033C12.5423 16.7934 23.1105 14.3842 31.1634 14.6959ZM31.3653 15.3972C23.3754 15.0314 12.7597 17.3985 0.0907167 25.8249C0.519789 30.6478 2.44894 35.0393 5.40842 38.5295C8.48886 37.3261 12.8413 34.4501 16.1326 28.5919C17.5753 26.0241 20.2111 23.4809 23.2431 21.6056C26.0027 19.8987 29.1283 18.722 32.0293 18.6031C31.9706 18.1893 31.9022 17.7798 31.8246 17.3748C31.6959 16.7035 31.542 16.0441 31.3653 15.3972ZM32.0926 15.4385C38.2069 15.8526 42.7087 17.8717 45.325 19.9109C45.5393 21.1672 45.6509 22.4585 45.6509 23.7759C45.6509 28.6885 44.099 33.2385 41.4586 36.9626C42.2583 30.8936 41.7745 26.5808 40.4345 23.6589C38.8356 20.1723 36.0345 18.7032 32.8769 18.5992C32.8269 18.5975 32.7768 18.5962 32.7267 18.5952C32.6637 18.1401 32.5892 17.6899 32.5039 17.2446C32.3866 16.6326 32.2489 16.0304 32.0926 15.4385ZM45.1303 18.9062C42.2972 16.9132 37.8055 15.0877 31.8959 14.7321C31.4853 13.33 30.9716 11.9881 30.3798 10.7129C31.5058 10.5117 32.5201 10.0782 33.3332 9.32673C34.4219 8.32057 35.1014 6.78985 35.2468 4.623C40.2051 7.84523 43.8339 12.9406 45.1303 18.9062ZM32.8637 8.81876C33.8411 7.9155 34.4945 6.4592 34.5759 4.20335C31.2897 2.2262 27.4647 1.05327 23.3733 0.956902C25.8172 3.30726 28.2595 6.39524 30.069 10.0634C31.1748 9.89529 32.1268 9.49981 32.8637 8.81876ZM28.5797 10.1589C28.8371 10.162 29.0889 10.1562 29.3346 10.1409C27.4436 6.38889 24.8786 3.26497 22.3615 0.955078C17.7318 1.04739 13.4402 2.51813 9.88035 4.97373C11.9824 5.04135 14.6132 5.5242 17.4405 6.86347C20.724 8.41881 25.0735 10.1167 28.5797 10.1589ZM32.1175 19.2919C29.3577 19.3905 26.3243 20.5131 23.6069 22.1939C20.6467 24.0248 18.1069 26.4901 16.7356 28.9307C13.4483 34.7818 9.10541 37.7675 5.89158 39.0812C9.55754 43.1347 14.6585 45.8658 20.3932 46.4733C30.3688 36.5201 33.0147 27.1506 32.1175 19.2919ZM32.8133 19.2892L32.8541 19.2905C35.7766 19.3868 38.327 20.7225 39.8058 23.9473C41.1556 26.8907 41.6257 31.4369 40.5968 38.1012C36.4126 43.2854 30.0063 46.6013 22.8254 46.6013C22.3099 46.6013 21.7983 46.5842 21.2912 46.5506C31.0279 36.6532 33.7001 27.2593 32.8133 19.2892Z" fill="url(#paint1_radial_2507_36)"/>
<g filter="url(#filter0_d_2507_36)">
<path d="M44.3897 16.2454C41.2297 30.4686 19.7392 17.8413 9.93164 4.91305C10.3582 4.62206 10.7952 4.34516 11.2418 4.08301C19.1637 15.4706 40.4215 29.7574 44.1386 15.5924C44.17 15.6746 44.3592 16.1627 44.3897 16.2454Z" fill="#B13500"/>
<path d="M11.187 5.29872C11.133 5.23121 11.0794 5.16367 11.0261 5.09611C11.0289 5.09435 11.0317 5.09259 11.0344 5.09083C11.0848 5.16005 11.1357 5.22935 11.187 5.29872Z" stroke="#B13500" stroke-width="1.50692"/>
</g>
<path d="M39.4249 20.9886L39.9461 22.6483C39.9522 22.6677 39.9377 22.6875 39.9173 22.6875H37.2698C37.2519 22.6875 37.2379 22.672 37.2398 22.6542L37.4059 21.0582C37.4075 21.0432 37.4199 21.0317 37.4349 21.0312L39.3952 20.9675C39.4087 20.9671 39.4209 20.9757 39.4249 20.9886Z" stroke="url(#paint2_linear_2507_36)" stroke-width="0.904151"/>
<g filter="url(#filter1_d_2507_36)">
<path d="M47.0401 32.3585C47.0401 37.9779 43.2981 42.5333 38.6821 42.5333C34.0662 42.5333 30.3242 37.9779 30.3242 32.3585C30.3242 26.739 34.0662 22.1836 38.6821 22.1836C43.2981 22.1836 47.0401 26.739 47.0401 32.3585Z" fill="url(#paint3_radial_2507_36)"/>
<path d="M47.7668 32.3585C47.7668 37.9779 44.0249 42.5333 39.4089 42.5333C34.793 42.5333 31.051 37.9779 31.051 32.3585C31.051 26.739 34.793 22.1836 39.4089 22.1836C44.0249 22.1836 47.7668 26.739 47.7668 32.3585Z" fill="url(#paint4_linear_2507_36)"/>
</g>
<path d="M38.3628 21.5195C38.9756 21.5195 39.4844 21.354 39.9469 21.0597C40.0758 20.9776 40.1904 20.9499 40.2885 20.9564C40.3866 20.9629 40.4731 21.004 40.5455 21.0677C40.6888 21.1936 40.7732 21.405 40.7745 21.5891C40.4081 21.7749 39.4943 22.1223 38.5639 22.1223C38.3274 22.1223 38.181 22.079 38.0976 22.0213C38.0172 21.9658 37.993 21.8959 38.0009 21.8266C38.0091 21.754 38.0538 21.6768 38.1221 21.617C38.1901 21.5575 38.2767 21.5195 38.3628 21.5195Z" fill="#AC3401" stroke="#AB3401" stroke-width="0.100461"/>
<defs>
<filter id="filter0_d_2507_36" x="8.92703" y="3.48024" width="36.4682" height="20.4497" filterUnits="userSpaceOnUse" color-interpolation-filters="sRGB">
<feFlood flood-opacity="0" result="BackgroundImageFix"/>
<feColorMatrix in="SourceAlpha" type="matrix" values="0 0 0 0 0 0 0 0 0 0 0 0 0 0 0 0 0 0 127 0" result="hardAlpha"/>
<feOffset dy="0.401845"/>
<feGaussianBlur stdDeviation="0.502306"/>
<feComposite in2="hardAlpha" operator="out"/>
<feColorMatrix type="matrix" values="0 0 0 0 0 0 0 0 0 0 0 0 0 0 0 0 0 0 0.5 0"/>
<feBlend mode="normal" in2="BackgroundImageFix" result="effect1_dropShadow_2507_36"/>
<feBlend mode="normal" in="SourceGraphic" in2="effect1_dropShadow_2507_36" result="shape"/>
</filter>
<filter id="filter1_d_2507_36" x="17.874" y="16.996" width="38.1938" height="41.1" filterUnits="userSpaceOnUse" color-interpolation-filters="sRGB">
<feFlood flood-opacity="0" result="BackgroundImageFix"/>
<feColorMatrix in="SourceAlpha" type="matrix" values="0 0 0 0 0 0 0 0 0 0 0 0 0 0 0 0 0 0 127 0" result="hardAlpha"/>
<feOffset dx="-2.07504" dy="5.1876"/>
<feGaussianBlur stdDeviation="5.1876"/>
<feComposite in2="hardAlpha" operator="out"/>
<feColorMatrix type="matrix" values="0 0 0 0 0 0 0 0 0 0 0 0 0 0 0 0 0 0 0.5 0"/>
<feBlend mode="normal" in2="BackgroundImageFix" result="effect1_dropShadow_2507_36"/>
<feBlend mode="normal" in="SourceGraphic" in2="effect1_dropShadow_2507_36" result="shape"/>
</filter>
<radialGradient id="paint0_radial_2507_36" cx="0" cy="0" r="1" gradientUnits="userSpaceOnUse" gradientTransform="translate(42.5383 -2.84819) rotate(122.421) scale(60.6355 60.6447)">
<stop/>
<stop offset="0.339205" stop-color="#666666"/>
<stop offset="0.539102" stop-color="#656565"/>
<stop offset="0.708909" stop-color="#393939"/>
<stop offset="1"/>
</radialGradient>
<radialGradient id="paint1_radial_2507_36" cx="0" cy="0" r="1" gradientUnits="userSpaceOnUse" gradientTransform="translate(33.5465 0.263397) rotate(116.874) scale(57.3814 57.3873)">
<stop stop-color="#FFDDAA"/>
<stop offset="0.259922" stop-color="#FFBE6A"/>
<stop offset="0.5" stop-color="#CE7E1F"/>
<stop offset="1" stop-color="#491F01"/>
</radialGradient>
<linearGradient id="paint2_linear_2507_36" x1="39.7428" y1="20.6899" x2="38.249" y2="22.8851" gradientUnits="userSpaceOnUse">
<stop stop-color="#F8D96C"/>
<stop offset="0.453125" stop-color="#E6C964"/>
<stop offset="1" stop-color="#D2B23E"/>
</linearGradient>
<radialGradient id="paint3_radial_2507_36" cx="0" cy="0" r="1" gradientUnits="userSpaceOnUse" gradientTransform="translate(31.0826 24.0005) rotate(74.2742) scale(23.7837 20.2638)">
<stop stop-color="#FFDB5C"/>
<stop offset="0.371054" stop-color="#C2A43A"/>
<stop offset="0.650167" stop-color="#9C8224"/>
<stop offset="1" stop-color="#715A0B"/>
</radialGradient>
<linearGradient id="paint4_linear_2507_36" x1="46.8709" y1="21.8202" x2="27.5091" y2="41.7006" gradientUnits="userSpaceOnUse">
<stop stop-color="#FFE587"/>
<stop offset="0.229167" stop-color="#FFF2C2"/>
<stop offset="0.395833" stop-color="white"/>
<stop offset="0.59174" stop-color="#FBE28C"/>
<stop offset="0.73015" stop-color="#FFEEB4"/>
<stop offset="1" stop-color="#CCA82A"/>
</linearGradient>
</defs>
</svg>
